<?xml version="1.0" standalone="no"?>
<!DOCTYPE svg PUBLIC "-//W3C//DTD SVG 20010904//EN"
 "http://www.w3.org/TR/2001/REC-SVG-20010904/DTD/svg10.dtd">
<svg version="1.0" xmlns="http://www.w3.org/2000/svg"
 width="256.000000pt" height="256.000000pt" viewBox="0 0 256.000000 256.000000"
 preserveAspectRatio="xMidYMid meet">
<metadata>
Created by potrace 1.11, written by Peter Selinger 2001-2013
</metadata>
<g transform="translate(0.000000,256.000000) scale(0.100000,-0.100000)"
fill="#000000" stroke="none">
<path d="M1818 2475 c-2 -2 -41 -6 -88 -9 -47 -4 -96 -8 -110 -10 -14 -3 -65
-8 -115 -12 -49 -4 -112 -9 -140 -11 -27 -2 -72 -6 -100 -8 -27 -2 -50 -4 -50
-5 0 -1 -18 -3 -40 -5 -99 -7 -213 -16 -240 -20 -16 -2 -61 -7 -100 -10 -38
-3 -92 -8 -120 -10 -27 -3 -79 -7 -115 -10 -36 -4 -81 -8 -100 -10 -19 -1 -71
-6 -115 -9 -140 -11 -132 -5 -129 -89 1 -65 9 -317 19 -632 6 -167 15 -471 21
-655 2 -85 6 -216 8 -290 2 -74 5 -173 6 -220 3 -102 21 -144 90 -211 51 -50
150 -119 169 -119 6 0 11 -4 11 -9 0 -15 62 -31 95 -26 17 3 64 12 105 20 41
8 91 17 110 20 19 3 42 8 50 10 8 2 26 6 40 8 82 14 128 23 133 26 1 1 17 4
36 7 18 2 104 18 190 34 164 32 190 37 231 45 14 3 48 9 75 14 28 6 64 12 80
15 17 3 41 7 55 10 44 10 74 16 110 21 19 3 42 8 50 10 8 2 31 7 50 10 19 3
46 8 60 10 33 7 63 13 130 25 30 6 58 14 62 18 5 5 9 106 11 225 1 119 6 217
10 217 4 0 3 8 -2 19 -6 10 -8 21 -5 24 3 2 7 105 10 228 2 123 6 294 9 379 6
214 18 701 19 780 l1 65 -75 0 c-44 0 -100 8 -135 19 -211 66 -215 67 -215 86
0 23 -38 48 -52 35z"/>
</g>
</svg>
